<mxfile host="Electron" agent="Mozilla/5.0 (Windows NT 10.0; Win64; x64) AppleWebKit/537.36 (KHTML, like Gecko) draw.io/26.0.15 Chrome/132.0.6834.196 Electron/34.2.0 Safari/537.36" version="26.0.15" pages="4">
  <diagram name="Page-1" id="yjYv3An6mZILiAG3wfB3">
    <mxGraphModel dx="823" dy="556" grid="1" gridSize="10" guides="1" tooltips="1" connect="1" arrows="1" fold="1" page="1" pageScale="1" pageWidth="850" pageHeight="1100" math="0" shadow="0">
      <root>
        <mxCell id="0" />
        <mxCell id="1" parent="0" />
        <mxCell id="Svo8H0H2lGFkEAtUpFbr-40" value="Начальное состояние =&amp;nbsp;&lt;span style=&quot;background-color: transparent; color: light-dark(rgb(0, 0, 0), rgb(255, 255, 255));&quot;&gt;ε-closure(1)&lt;/span&gt;&lt;div&gt;&lt;span style=&quot;background-color: transparent; color: light-dark(rgb(0, 0, 0), rgb(255, 255, 255));&quot;&gt;&lt;br&gt;&lt;/span&gt;&lt;/div&gt;&lt;div&gt;ε-closure(1) = {1} == State 1&lt;span style=&quot;background-color: transparent; color: light-dark(rgb(0, 0, 0), rgb(255, 255, 255));&quot;&gt;&lt;br&gt;&lt;/span&gt;&lt;/div&gt;&lt;div&gt;&lt;br&gt;&lt;/div&gt;&lt;div&gt;Move({1}, a) = {2}&lt;/div&gt;&lt;div&gt;ε-closure({2}) = {2, 3, 6, 9} == State 2&lt;br&gt;&lt;/div&gt;&lt;div&gt;Move&lt;span style=&quot;background-color: transparent; color: light-dark(rgb(0, 0, 0), rgb(255, 255, 255));&quot;&gt;({1}, b) = {}&lt;/span&gt;&lt;/div&gt;&lt;div&gt;Move({1}, c) = {}&lt;span style=&quot;background-color: transparent; color: light-dark(rgb(0, 0, 0), rgb(255, 255, 255));&quot;&gt;&lt;br&gt;&lt;/span&gt;&lt;/div&gt;&lt;div&gt;State 1 пройден&lt;/div&gt;&lt;div&gt;&lt;br&gt;&lt;/div&gt;&lt;div&gt;Move({2, 3, 6, 9}, a) = {4}&lt;/div&gt;&lt;div&gt;ε-closure({4}) = {4} == State 3&lt;br&gt;&lt;/div&gt;&lt;div&gt;&lt;div&gt;Move({2, 3, 6, 9}, b) = {7}&lt;/div&gt;&lt;/div&gt;&lt;div&gt;&lt;div&gt;ε-closure({7}) = {7} == State 4&lt;br&gt;&lt;/div&gt;&lt;div&gt;&lt;/div&gt;&lt;/div&gt;&lt;div&gt;&lt;div&gt;Move({2, 3, 6, 9}, c) = {10}&lt;/div&gt;&lt;/div&gt;&lt;div&gt;&lt;div&gt;&lt;div&gt;ε-closure({10}) = {10} == State 5&lt;br&gt;&lt;/div&gt;&lt;div&gt;State 2 пройден&lt;br&gt;&lt;/div&gt;&lt;div&gt;&lt;br&gt;&lt;/div&gt;&lt;div&gt;Move({4}, a) = {}&lt;/div&gt;&lt;div&gt;&lt;/div&gt;&lt;/div&gt;&lt;div&gt;&lt;/div&gt;&lt;/div&gt;&lt;div&gt;Move({4}, b) = {5}&lt;br&gt;&lt;/div&gt;&lt;div&gt;&lt;div&gt;&lt;div&gt;ε-closure({5}) = {5, 2, 3, 6, 9} == State 6&lt;br&gt;&lt;/div&gt;&lt;div&gt;&lt;/div&gt;&lt;/div&gt;&lt;div&gt;&lt;/div&gt;&lt;/div&gt;&lt;div&gt;Move({4}, c) = {}&lt;br&gt;&lt;/div&gt;&lt;div&gt;State 3 пройден&lt;br&gt;&lt;/div&gt;&lt;div&gt;&lt;br&gt;&lt;/div&gt;&lt;div&gt;Move({7}, a) = {}&lt;br&gt;&lt;/div&gt;&lt;div&gt;Move({7}, b) = {}&lt;br&gt;&lt;/div&gt;&lt;div&gt;Move({7}, c) = {8}&lt;br&gt;&lt;/div&gt;&lt;div&gt;&lt;div&gt;&lt;div&gt;ε-closure({8}) = {8, 2, 3, 6, 9} == State 7&lt;br&gt;&lt;/div&gt;&lt;div&gt;State 4 пройден&lt;br&gt;&lt;/div&gt;&lt;div&gt;&lt;br&gt;&lt;/div&gt;&lt;div&gt;&lt;div&gt;Move({10}, a) = {}&lt;br&gt;&lt;/div&gt;&lt;div&gt;Move({10}, b) = {}&lt;br&gt;&lt;/div&gt;&lt;div&gt;Move({10}, c) = {}&lt;/div&gt;&lt;/div&gt;&lt;div&gt;&lt;/div&gt;&lt;/div&gt;&lt;div&gt;&lt;/div&gt;&lt;/div&gt;&lt;div&gt;&lt;div&gt;State 5 пройден&lt;br&gt;&lt;/div&gt;&lt;div&gt;&lt;br&gt;&lt;/div&gt;&lt;/div&gt;&lt;div&gt;&lt;div&gt;Move({5, 2, 3, 6, 9}, a) = {4}&lt;/div&gt;&lt;/div&gt;&lt;div&gt;&lt;div&gt;ε-closure({4}) = {4} == State 3&lt;br&gt;&lt;/div&gt;&lt;div&gt;&lt;/div&gt;&lt;/div&gt;&lt;div&gt;&lt;div&gt;Move({5, 2, 3, 6, 9}, b) = {7}&lt;/div&gt;&lt;div&gt;&lt;div&gt;&lt;div&gt;ε-closure({7}) = {7} == State 4&lt;br&gt;&lt;/div&gt;&lt;div&gt;&lt;/div&gt;&lt;/div&gt;&lt;div&gt;&lt;/div&gt;&lt;/div&gt;&lt;div&gt;&lt;div&gt;Move({5, 2, 3, 6, 9}, c) = {10}&lt;/div&gt;&lt;div&gt;&lt;div&gt;ε-closure({10}) = {10} == State 5&lt;br&gt;&lt;/div&gt;&lt;/div&gt;&lt;div&gt;&lt;span style=&quot;background-color: transparent; color: light-dark(rgb(0, 0, 0), rgb(255, 255, 255));&quot;&gt;State 6 пройден&lt;/span&gt;&lt;br&gt;&lt;/div&gt;&lt;div&gt;&lt;div&gt;&lt;br&gt;&lt;/div&gt;&lt;/div&gt;&lt;/div&gt;&lt;/div&gt;&lt;div&gt;&lt;div&gt;Move({8, 2, 3, 6, 9}, a) = {4}&lt;/div&gt;&lt;div&gt;&lt;div&gt;ε-closure({4}) = {4} == State 3&lt;br&gt;&lt;/div&gt;&lt;div&gt;&lt;/div&gt;&lt;/div&gt;&lt;div&gt;&lt;div&gt;Move({8, 2, 3, 6, 9}, b) = {7}&lt;/div&gt;&lt;div&gt;&lt;div&gt;&lt;div&gt;ε-closure({7}) = {7} == State 4&lt;br&gt;&lt;/div&gt;&lt;div&gt;&lt;/div&gt;&lt;/div&gt;&lt;div&gt;&lt;/div&gt;&lt;/div&gt;&lt;div&gt;&lt;div&gt;Move({8, 2, 3, 6, 9}, c) = {10}&lt;/div&gt;&lt;div&gt;ε-closure({10}) = {10} == State 5&lt;br&gt;&lt;/div&gt;&lt;div&gt;&lt;span style=&quot;background-color: transparent; color: light-dark(rgb(0, 0, 0), rgb(255, 255, 255));&quot;&gt;State 7 пройден&lt;/span&gt;&lt;br&gt;&lt;/div&gt;&lt;div&gt;&lt;br&gt;&lt;/div&gt;&lt;/div&gt;&lt;/div&gt;&lt;/div&gt;&lt;div&gt;&lt;br&gt;&lt;/div&gt;&lt;div&gt;&lt;br&gt;&lt;/div&gt;&lt;div&gt;&lt;span style=&quot;white-space: pre;&quot;&gt;&#x9;&lt;/span&gt;State&lt;span style=&quot;white-space: pre;&quot;&gt;&#x9;&lt;/span&gt;&lt;span style=&quot;white-space: pre;&quot;&gt;&#x9;&lt;/span&gt;a&lt;span style=&quot;white-space: pre;&quot;&gt;&#x9;&lt;/span&gt;&lt;span style=&quot;white-space: pre;&quot;&gt;&#x9;&lt;/span&gt;b&lt;span style=&quot;white-space: pre;&quot;&gt;&#x9;&lt;/span&gt;&lt;span style=&quot;white-space: pre;&quot;&gt;&#x9;&lt;/span&gt;c&lt;/div&gt;&lt;div&gt;1&lt;span style=&quot;white-space: pre;&quot;&gt;&#x9;&lt;/span&gt;1&lt;span style=&quot;white-space: pre;&quot;&gt;&#x9;&lt;/span&gt;&lt;span style=&quot;white-space: pre;&quot;&gt;&#x9;&lt;/span&gt;&lt;span style=&quot;white-space: pre;&quot;&gt;&#x9;&lt;/span&gt;2,3,6,9&lt;span style=&quot;white-space: pre;&quot;&gt;&#x9;&lt;/span&gt;-&lt;span style=&quot;white-space: pre;&quot;&gt;&#x9;&lt;/span&gt;&lt;span style=&quot;white-space: pre;&quot;&gt;&#x9;&lt;/span&gt;-&lt;/div&gt;&lt;div&gt;2&lt;span style=&quot;white-space: pre;&quot;&gt;&#x9;&lt;/span&gt;2,3,6,9&lt;span style=&quot;white-space: pre;&quot;&gt;&#x9;&lt;/span&gt;&lt;span style=&quot;white-space: pre;&quot;&gt;&#x9;&lt;/span&gt;4&lt;span style=&quot;white-space: pre;&quot;&gt;&#x9;&lt;/span&gt;&lt;span style=&quot;white-space: pre;&quot;&gt;&#x9;&lt;/span&gt;7&lt;span style=&quot;white-space: pre;&quot;&gt;&#x9;&lt;/span&gt;&lt;span style=&quot;white-space: pre;&quot;&gt;&#x9;&lt;/span&gt;10&lt;/div&gt;&lt;div&gt;3&lt;span style=&quot;white-space: pre;&quot;&gt;&#x9;&lt;/span&gt;4&lt;span style=&quot;white-space: pre;&quot;&gt;&#x9;&lt;/span&gt;&lt;span style=&quot;white-space: pre;&quot;&gt;&#x9;&lt;/span&gt;&lt;span style=&quot;white-space: pre;&quot;&gt;&#x9;&lt;/span&gt;-&lt;span style=&quot;white-space: pre;&quot;&gt;&#x9;&lt;/span&gt;&lt;span style=&quot;white-space: pre;&quot;&gt;&#x9;&lt;/span&gt;5,2,3,6,9&lt;span style=&quot;white-space: pre;&quot;&gt;&#x9;&lt;/span&gt;-&lt;/div&gt;&lt;div&gt;4&lt;span style=&quot;white-space: pre;&quot;&gt;&#x9;&lt;/span&gt;7&lt;span style=&quot;white-space: pre;&quot;&gt;&#x9;&lt;/span&gt;&lt;span style=&quot;white-space: pre;&quot;&gt;&#x9;&lt;/span&gt;&lt;span style=&quot;white-space: pre;&quot;&gt;&#x9;&lt;/span&gt;-&lt;span style=&quot;white-space: pre;&quot;&gt;&#x9;&lt;/span&gt;&lt;span style=&quot;white-space: pre;&quot;&gt;&#x9;&lt;/span&gt;-&lt;span style=&quot;white-space: pre;&quot;&gt;&#x9;&lt;/span&gt;&lt;span style=&quot;white-space: pre;&quot;&gt;&#x9;&lt;/span&gt;8,2,3,6,9&lt;/div&gt;&lt;div&gt;&lt;b&gt;5&lt;/b&gt;&lt;span style=&quot;white-space: pre;&quot;&gt;&#x9;&lt;/span&gt;10&lt;span style=&quot;white-space: pre;&quot;&gt;&#x9;&lt;/span&gt;&lt;span style=&quot;white-space: pre;&quot;&gt;&#x9;&lt;/span&gt;&lt;span style=&quot;white-space: pre;&quot;&gt;&#x9;&lt;/span&gt;-&lt;span style=&quot;white-space: pre;&quot;&gt;&#x9;&lt;/span&gt;&lt;span style=&quot;white-space: pre;&quot;&gt;&#x9;&lt;/span&gt;-&lt;span style=&quot;white-space: pre;&quot;&gt;&#x9;&lt;/span&gt;&lt;span style=&quot;white-space: pre;&quot;&gt;&#x9;&lt;/span&gt;-&lt;/div&gt;&lt;div&gt;6&lt;span style=&quot;white-space: pre;&quot;&gt;&#x9;&lt;/span&gt;5,2,3,6,9&lt;span style=&quot;white-space: pre;&quot;&gt;&#x9;&lt;/span&gt;&lt;span style=&quot;white-space: pre;&quot;&gt;&#x9;&lt;/span&gt;4&lt;span style=&quot;white-space: pre;&quot;&gt;&#x9;&lt;/span&gt;&lt;span style=&quot;white-space: pre;&quot;&gt;&#x9;&lt;/span&gt;7&lt;span style=&quot;white-space: pre;&quot;&gt;&#x9;&lt;/span&gt;&lt;span style=&quot;white-space: pre;&quot;&gt;&#x9;&lt;/span&gt;10&lt;/div&gt;&lt;div&gt;7&lt;span style=&quot;white-space: pre;&quot;&gt;&#x9;&lt;/span&gt;8,2,3,6,9&lt;span style=&quot;white-space: pre;&quot;&gt;&#x9;&lt;/span&gt;&lt;span style=&quot;white-space: pre;&quot;&gt;&#x9;&lt;/span&gt;4&lt;span style=&quot;white-space: pre;&quot;&gt;&#x9;&lt;/span&gt;&lt;span style=&quot;white-space: pre;&quot;&gt;&#x9;&lt;/span&gt;7&lt;span style=&quot;white-space: pre;&quot;&gt;&#x9;&lt;/span&gt;&lt;span style=&quot;white-space: pre;&quot;&gt;&#x9;&lt;/span&gt;10&lt;/div&gt;" style="text;html=1;align=left;verticalAlign=top;whiteSpace=wrap;rounded=0;labelPosition=center;verticalLabelPosition=middle;" parent="1" vertex="1">
          <mxGeometry x="40" y="360" width="280" height="910" as="geometry" />
        </mxCell>
        <mxCell id="Svo8H0H2lGFkEAtUpFbr-79" value="&lt;div&gt;&lt;div&gt;| Состояние\Переход |&amp;nbsp; a&amp;nbsp; | b&amp;nbsp; &amp;nbsp;| c&amp;nbsp; &amp;nbsp;|&lt;/div&gt;&lt;div&gt;| ----------------- | --- | --- | --- |&lt;/div&gt;&lt;div&gt;| 1&amp;nbsp; &amp;nbsp; &amp;nbsp; &amp;nbsp; &amp;nbsp; &amp;nbsp; &amp;nbsp; &amp;nbsp; &amp;nbsp;| 2&amp;nbsp; &amp;nbsp;| -&amp;nbsp; &amp;nbsp;| -&amp;nbsp; &amp;nbsp;|&lt;/div&gt;&lt;div&gt;| 2&amp;nbsp; &amp;nbsp; &amp;nbsp; &amp;nbsp; &amp;nbsp; &amp;nbsp; &amp;nbsp; &amp;nbsp; &amp;nbsp;| 3&amp;nbsp; &amp;nbsp;| 4&amp;nbsp; &amp;nbsp;| 5&amp;nbsp; &amp;nbsp;|&lt;/div&gt;&lt;div&gt;| 3&amp;nbsp; &amp;nbsp; &amp;nbsp; &amp;nbsp; &amp;nbsp; &amp;nbsp; &amp;nbsp; &amp;nbsp; &amp;nbsp;| -&amp;nbsp; &amp;nbsp;| 6&amp;nbsp; &amp;nbsp;| -&amp;nbsp; &amp;nbsp;|&lt;/div&gt;&lt;div&gt;| 4&amp;nbsp; &amp;nbsp; &amp;nbsp; &amp;nbsp; &amp;nbsp; &amp;nbsp; &amp;nbsp; &amp;nbsp; &amp;nbsp;| -&amp;nbsp; &amp;nbsp;| -&amp;nbsp; &amp;nbsp;| 7&amp;nbsp; &amp;nbsp;|&lt;/div&gt;&lt;div&gt;| 5 (Конечное)&amp;nbsp; &amp;nbsp; &amp;nbsp; | -&amp;nbsp; &amp;nbsp;| -&amp;nbsp; &amp;nbsp;| -&amp;nbsp; &amp;nbsp;|&lt;/div&gt;&lt;div&gt;| 6&amp;nbsp; &amp;nbsp; &amp;nbsp; &amp;nbsp; &amp;nbsp; &amp;nbsp; &amp;nbsp; &amp;nbsp; &amp;nbsp;| 3&amp;nbsp; &amp;nbsp;| 4&amp;nbsp; &amp;nbsp;| 5&amp;nbsp; &amp;nbsp;|&lt;/div&gt;&lt;div&gt;| 7&amp;nbsp; &amp;nbsp; &amp;nbsp; &amp;nbsp; &amp;nbsp; &amp;nbsp; &amp;nbsp; &amp;nbsp; &amp;nbsp;| 3&amp;nbsp; &amp;nbsp;| 4&amp;nbsp; &amp;nbsp;| 5&amp;nbsp; &amp;nbsp;|&lt;/div&gt;&lt;/div&gt;" style="text;html=1;align=left;verticalAlign=middle;resizable=0;points=[];autosize=1;strokeColor=none;fillColor=none;" parent="1" vertex="1">
          <mxGeometry x="520" y="1280" width="220" height="140" as="geometry" />
        </mxCell>
      </root>
    </mxGraphModel>
  </diagram>
  <diagram id="UDFgUIDRRPisHSrCxBjx" name="НКА">
    <mxGraphModel dx="893" dy="519" grid="1" gridSize="10" guides="1" tooltips="1" connect="1" arrows="1" fold="1" page="1" pageScale="1" pageWidth="850" pageHeight="1100" math="0" shadow="0">
      <root>
        <mxCell id="0" />
        <mxCell id="1" parent="0" />
        <mxCell id="Vc0Nq9AyAffP4iCzn07i-1" style="edgeStyle=orthogonalEdgeStyle;rounded=0;orthogonalLoop=1;jettySize=auto;html=1;entryX=0;entryY=0.5;entryDx=0;entryDy=0;" edge="1" parent="1" source="Vc0Nq9AyAffP4iCzn07i-3" target="Vc0Nq9AyAffP4iCzn07i-11">
          <mxGeometry relative="1" as="geometry">
            <mxPoint x="160" y="200" as="targetPoint" />
          </mxGeometry>
        </mxCell>
        <mxCell id="Vc0Nq9AyAffP4iCzn07i-2" value="a" style="edgeLabel;html=1;align=center;verticalAlign=middle;resizable=0;points=[];" vertex="1" connectable="0" parent="Vc0Nq9AyAffP4iCzn07i-1">
          <mxGeometry x="0.0069" y="-1" relative="1" as="geometry">
            <mxPoint y="-11" as="offset" />
          </mxGeometry>
        </mxCell>
        <mxCell id="Vc0Nq9AyAffP4iCzn07i-3" value="1" style="ellipse;whiteSpace=wrap;html=1;aspect=fixed;" vertex="1" parent="1">
          <mxGeometry x="80" y="180" width="40" height="40" as="geometry" />
        </mxCell>
        <mxCell id="Vc0Nq9AyAffP4iCzn07i-4" value="" style="endArrow=classic;html=1;rounded=0;entryX=0;entryY=0.5;entryDx=0;entryDy=0;" edge="1" parent="1" target="Vc0Nq9AyAffP4iCzn07i-3">
          <mxGeometry width="50" height="50" relative="1" as="geometry">
            <mxPoint x="40" y="200" as="sourcePoint" />
            <mxPoint x="100" y="270" as="targetPoint" />
          </mxGeometry>
        </mxCell>
        <mxCell id="Vc0Nq9AyAffP4iCzn07i-5" style="edgeStyle=orthogonalEdgeStyle;rounded=0;orthogonalLoop=1;jettySize=auto;html=1;entryX=0;entryY=0.5;entryDx=0;entryDy=0;" edge="1" parent="1" source="Vc0Nq9AyAffP4iCzn07i-11" target="Vc0Nq9AyAffP4iCzn07i-17">
          <mxGeometry relative="1" as="geometry">
            <mxPoint x="240" y="170" as="targetPoint" />
          </mxGeometry>
        </mxCell>
        <mxCell id="Vc0Nq9AyAffP4iCzn07i-6" value="&lt;h3&gt;&lt;span id=&quot;resultsp2&quot; class=&quot;detail_character_unicode&quot;&gt;ε&lt;/span&gt;&lt;/h3&gt;" style="edgeLabel;html=1;align=center;verticalAlign=middle;resizable=0;points=[];" vertex="1" connectable="0" parent="Vc0Nq9AyAffP4iCzn07i-5">
          <mxGeometry x="0.1216" y="1" relative="1" as="geometry">
            <mxPoint x="-9" as="offset" />
          </mxGeometry>
        </mxCell>
        <mxCell id="Vc0Nq9AyAffP4iCzn07i-7" style="edgeStyle=orthogonalEdgeStyle;rounded=0;orthogonalLoop=1;jettySize=auto;html=1;entryX=0;entryY=0.5;entryDx=0;entryDy=0;exitX=1;exitY=0.5;exitDx=0;exitDy=0;" edge="1" parent="1" source="Vc0Nq9AyAffP4iCzn07i-11" target="Vc0Nq9AyAffP4iCzn07i-14">
          <mxGeometry relative="1" as="geometry">
            <mxPoint x="240" y="230" as="targetPoint" />
            <Array as="points">
              <mxPoint x="220" y="200" />
              <mxPoint x="220" y="260" />
              <mxPoint x="240" y="260" />
            </Array>
          </mxGeometry>
        </mxCell>
        <mxCell id="Vc0Nq9AyAffP4iCzn07i-8" value="&lt;h3&gt;&lt;span id=&quot;resultsp2&quot; class=&quot;detail_character_unicode&quot;&gt;ε&lt;/span&gt;&lt;/h3&gt;" style="edgeLabel;html=1;align=center;verticalAlign=middle;resizable=0;points=[];" vertex="1" connectable="0" parent="Vc0Nq9AyAffP4iCzn07i-7">
          <mxGeometry x="0.1693" y="-1" relative="1" as="geometry">
            <mxPoint x="-9" as="offset" />
          </mxGeometry>
        </mxCell>
        <mxCell id="Vc0Nq9AyAffP4iCzn07i-9" style="edgeStyle=orthogonalEdgeStyle;rounded=0;orthogonalLoop=1;jettySize=auto;html=1;entryX=0.5;entryY=1;entryDx=0;entryDy=0;" edge="1" parent="1" source="Vc0Nq9AyAffP4iCzn07i-11" target="Vc0Nq9AyAffP4iCzn07i-34">
          <mxGeometry relative="1" as="geometry">
            <mxPoint x="330" y="300" as="targetPoint" />
            <Array as="points">
              <mxPoint x="180" y="320" />
              <mxPoint x="500" y="320" />
            </Array>
          </mxGeometry>
        </mxCell>
        <mxCell id="Vc0Nq9AyAffP4iCzn07i-10" value="&lt;h3&gt;&lt;span id=&quot;resultsp2&quot; class=&quot;detail_character_unicode&quot;&gt;ε&lt;/span&gt;&lt;/h3&gt;" style="edgeLabel;html=1;align=center;verticalAlign=middle;resizable=0;points=[];" vertex="1" connectable="0" parent="Vc0Nq9AyAffP4iCzn07i-9">
          <mxGeometry x="0.0109" y="3" relative="1" as="geometry">
            <mxPoint x="-3" y="3" as="offset" />
          </mxGeometry>
        </mxCell>
        <mxCell id="Vc0Nq9AyAffP4iCzn07i-11" value="2" style="ellipse;whiteSpace=wrap;html=1;aspect=fixed;" vertex="1" parent="1">
          <mxGeometry x="160" y="180" width="40" height="40" as="geometry" />
        </mxCell>
        <mxCell id="Vc0Nq9AyAffP4iCzn07i-12" style="edgeStyle=orthogonalEdgeStyle;rounded=0;orthogonalLoop=1;jettySize=auto;html=1;entryX=0;entryY=0.5;entryDx=0;entryDy=0;" edge="1" parent="1" source="Vc0Nq9AyAffP4iCzn07i-14" target="Vc0Nq9AyAffP4iCzn07i-23">
          <mxGeometry relative="1" as="geometry" />
        </mxCell>
        <mxCell id="Vc0Nq9AyAffP4iCzn07i-13" value="b" style="edgeLabel;html=1;align=center;verticalAlign=middle;resizable=0;points=[];" vertex="1" connectable="0" parent="Vc0Nq9AyAffP4iCzn07i-12">
          <mxGeometry x="-0.2127" y="-2" relative="1" as="geometry">
            <mxPoint y="-12" as="offset" />
          </mxGeometry>
        </mxCell>
        <mxCell id="Vc0Nq9AyAffP4iCzn07i-14" value="6" style="ellipse;whiteSpace=wrap;html=1;aspect=fixed;" vertex="1" parent="1">
          <mxGeometry x="240" y="240" width="40" height="40" as="geometry" />
        </mxCell>
        <mxCell id="Vc0Nq9AyAffP4iCzn07i-15" style="edgeStyle=orthogonalEdgeStyle;rounded=0;orthogonalLoop=1;jettySize=auto;html=1;entryX=0;entryY=0.5;entryDx=0;entryDy=0;" edge="1" parent="1" source="Vc0Nq9AyAffP4iCzn07i-17" target="Vc0Nq9AyAffP4iCzn07i-20">
          <mxGeometry relative="1" as="geometry" />
        </mxCell>
        <mxCell id="Vc0Nq9AyAffP4iCzn07i-16" value="a" style="edgeLabel;html=1;align=center;verticalAlign=middle;resizable=0;points=[];" vertex="1" connectable="0" parent="Vc0Nq9AyAffP4iCzn07i-15">
          <mxGeometry x="-0.252" relative="1" as="geometry">
            <mxPoint y="-10" as="offset" />
          </mxGeometry>
        </mxCell>
        <mxCell id="Vc0Nq9AyAffP4iCzn07i-17" value="3" style="ellipse;whiteSpace=wrap;html=1;aspect=fixed;" vertex="1" parent="1">
          <mxGeometry x="240" y="120" width="40" height="40" as="geometry" />
        </mxCell>
        <mxCell id="Vc0Nq9AyAffP4iCzn07i-18" style="edgeStyle=orthogonalEdgeStyle;rounded=0;orthogonalLoop=1;jettySize=auto;html=1;entryX=0;entryY=0.5;entryDx=0;entryDy=0;" edge="1" parent="1" source="Vc0Nq9AyAffP4iCzn07i-20" target="Vc0Nq9AyAffP4iCzn07i-26">
          <mxGeometry relative="1" as="geometry" />
        </mxCell>
        <mxCell id="Vc0Nq9AyAffP4iCzn07i-19" value="b" style="edgeLabel;html=1;align=center;verticalAlign=middle;resizable=0;points=[];" vertex="1" connectable="0" parent="Vc0Nq9AyAffP4iCzn07i-18">
          <mxGeometry x="-0.2127" relative="1" as="geometry">
            <mxPoint y="-10" as="offset" />
          </mxGeometry>
        </mxCell>
        <mxCell id="Vc0Nq9AyAffP4iCzn07i-20" value="4" style="ellipse;whiteSpace=wrap;html=1;aspect=fixed;" vertex="1" parent="1">
          <mxGeometry x="320" y="120" width="40" height="40" as="geometry" />
        </mxCell>
        <mxCell id="Vc0Nq9AyAffP4iCzn07i-21" style="edgeStyle=orthogonalEdgeStyle;rounded=0;orthogonalLoop=1;jettySize=auto;html=1;entryX=0;entryY=0.5;entryDx=0;entryDy=0;" edge="1" parent="1" source="Vc0Nq9AyAffP4iCzn07i-23" target="Vc0Nq9AyAffP4iCzn07i-29">
          <mxGeometry relative="1" as="geometry" />
        </mxCell>
        <mxCell id="Vc0Nq9AyAffP4iCzn07i-22" value="c" style="edgeLabel;html=1;align=center;verticalAlign=middle;resizable=0;points=[];" vertex="1" connectable="0" parent="Vc0Nq9AyAffP4iCzn07i-21">
          <mxGeometry x="-0.3304" relative="1" as="geometry">
            <mxPoint y="-10" as="offset" />
          </mxGeometry>
        </mxCell>
        <mxCell id="Vc0Nq9AyAffP4iCzn07i-23" value="7" style="ellipse;whiteSpace=wrap;html=1;aspect=fixed;" vertex="1" parent="1">
          <mxGeometry x="320" y="240" width="40" height="40" as="geometry" />
        </mxCell>
        <mxCell id="Vc0Nq9AyAffP4iCzn07i-24" style="edgeStyle=orthogonalEdgeStyle;rounded=0;orthogonalLoop=1;jettySize=auto;html=1;entryX=0;entryY=0.5;entryDx=0;entryDy=0;" edge="1" parent="1" source="Vc0Nq9AyAffP4iCzn07i-26" target="Vc0Nq9AyAffP4iCzn07i-34">
          <mxGeometry relative="1" as="geometry" />
        </mxCell>
        <mxCell id="Vc0Nq9AyAffP4iCzn07i-25" value="&lt;h3&gt;&lt;span id=&quot;resultsp2&quot; class=&quot;detail_character_unicode&quot;&gt;ε&lt;/span&gt;&lt;/h3&gt;" style="edgeLabel;html=1;align=center;verticalAlign=middle;resizable=0;points=[];" vertex="1" connectable="0" parent="Vc0Nq9AyAffP4iCzn07i-24">
          <mxGeometry x="-0.0883" y="-1" relative="1" as="geometry">
            <mxPoint x="-9" as="offset" />
          </mxGeometry>
        </mxCell>
        <mxCell id="Vc0Nq9AyAffP4iCzn07i-26" value="5" style="ellipse;whiteSpace=wrap;html=1;aspect=fixed;" vertex="1" parent="1">
          <mxGeometry x="400" y="120" width="40" height="40" as="geometry" />
        </mxCell>
        <mxCell id="Vc0Nq9AyAffP4iCzn07i-27" style="edgeStyle=orthogonalEdgeStyle;rounded=0;orthogonalLoop=1;jettySize=auto;html=1;entryX=0;entryY=0.5;entryDx=0;entryDy=0;" edge="1" parent="1" source="Vc0Nq9AyAffP4iCzn07i-29" target="Vc0Nq9AyAffP4iCzn07i-34">
          <mxGeometry relative="1" as="geometry" />
        </mxCell>
        <mxCell id="Vc0Nq9AyAffP4iCzn07i-28" value="&lt;h3&gt;&lt;span id=&quot;resultsp2&quot; class=&quot;detail_character_unicode&quot;&gt;ε&lt;/span&gt;&lt;/h3&gt;" style="edgeLabel;html=1;align=center;verticalAlign=middle;resizable=0;points=[];" vertex="1" connectable="0" parent="Vc0Nq9AyAffP4iCzn07i-27">
          <mxGeometry x="-0.1324" y="1" relative="1" as="geometry">
            <mxPoint x="-9" y="-7" as="offset" />
          </mxGeometry>
        </mxCell>
        <mxCell id="Vc0Nq9AyAffP4iCzn07i-29" value="8" style="ellipse;whiteSpace=wrap;html=1;aspect=fixed;" vertex="1" parent="1">
          <mxGeometry x="400" y="240" width="40" height="40" as="geometry" />
        </mxCell>
        <mxCell id="Vc0Nq9AyAffP4iCzn07i-30" style="edgeStyle=orthogonalEdgeStyle;rounded=0;orthogonalLoop=1;jettySize=auto;html=1;entryX=0.5;entryY=0;entryDx=0;entryDy=0;" edge="1" parent="1" source="Vc0Nq9AyAffP4iCzn07i-34" target="Vc0Nq9AyAffP4iCzn07i-11">
          <mxGeometry relative="1" as="geometry">
            <mxPoint x="330" y="50" as="targetPoint" />
            <Array as="points">
              <mxPoint x="500" y="80" />
              <mxPoint x="180" y="80" />
            </Array>
          </mxGeometry>
        </mxCell>
        <mxCell id="Vc0Nq9AyAffP4iCzn07i-31" value="&lt;h3&gt;&lt;span id=&quot;resultsp2&quot; class=&quot;detail_character_unicode&quot;&gt;ε&lt;/span&gt;&lt;/h3&gt;" style="edgeLabel;html=1;align=center;verticalAlign=middle;resizable=0;points=[];" vertex="1" connectable="0" parent="Vc0Nq9AyAffP4iCzn07i-30">
          <mxGeometry x="0.0282" y="1" relative="1" as="geometry">
            <mxPoint as="offset" />
          </mxGeometry>
        </mxCell>
        <mxCell id="Vc0Nq9AyAffP4iCzn07i-32" style="edgeStyle=orthogonalEdgeStyle;rounded=0;orthogonalLoop=1;jettySize=auto;html=1;entryX=0;entryY=0.5;entryDx=0;entryDy=0;" edge="1" parent="1" source="Vc0Nq9AyAffP4iCzn07i-34" target="Vc0Nq9AyAffP4iCzn07i-35">
          <mxGeometry relative="1" as="geometry">
            <mxPoint x="560" y="200" as="targetPoint" />
          </mxGeometry>
        </mxCell>
        <mxCell id="Vc0Nq9AyAffP4iCzn07i-33" value="с" style="edgeLabel;html=1;align=center;verticalAlign=middle;resizable=0;points=[];" vertex="1" connectable="0" parent="Vc0Nq9AyAffP4iCzn07i-32">
          <mxGeometry x="-0.3897" y="1" relative="1" as="geometry">
            <mxPoint y="-9" as="offset" />
          </mxGeometry>
        </mxCell>
        <mxCell id="Vc0Nq9AyAffP4iCzn07i-34" value="9" style="ellipse;whiteSpace=wrap;html=1;aspect=fixed;" vertex="1" parent="1">
          <mxGeometry x="480" y="180" width="40" height="40" as="geometry" />
        </mxCell>
        <mxCell id="Vc0Nq9AyAffP4iCzn07i-35" value="" style="ellipse;whiteSpace=wrap;html=1;aspect=fixed;" vertex="1" parent="1">
          <mxGeometry x="560" y="180" width="40" height="40" as="geometry" />
        </mxCell>
        <mxCell id="Vc0Nq9AyAffP4iCzn07i-36" value="10" style="ellipse;whiteSpace=wrap;html=1;aspect=fixed;" vertex="1" parent="1">
          <mxGeometry x="565" y="185" width="30" height="30" as="geometry" />
        </mxCell>
        <mxCell id="Vc0Nq9AyAffP4iCzn07i-37" value="a((ab)|(bc))*c" style="text;html=1;align=center;verticalAlign=middle;resizable=0;points=[];autosize=1;strokeColor=none;fillColor=none;" vertex="1" parent="1">
          <mxGeometry x="310" y="10" width="90" height="30" as="geometry" />
        </mxCell>
      </root>
    </mxGraphModel>
  </diagram>
  <diagram id="_xKs0kVPiTaZ8406xt03" name="ДКА">
    <mxGraphModel dx="1194" dy="-294" grid="1" gridSize="10" guides="1" tooltips="1" connect="1" arrows="1" fold="1" page="1" pageScale="1" pageWidth="850" pageHeight="1100" math="0" shadow="0">
      <root>
        <mxCell id="0" />
        <mxCell id="1" parent="0" />
        <mxCell id="b8For3fgFrFaYTWbPGvS-1" style="edgeStyle=orthogonalEdgeStyle;rounded=0;orthogonalLoop=1;jettySize=auto;html=1;entryX=0;entryY=0.5;entryDx=0;entryDy=0;" edge="1" parent="1" source="b8For3fgFrFaYTWbPGvS-3" target="b8For3fgFrFaYTWbPGvS-11">
          <mxGeometry relative="1" as="geometry" />
        </mxCell>
        <mxCell id="b8For3fgFrFaYTWbPGvS-2" value="a" style="edgeLabel;html=1;align=center;verticalAlign=middle;resizable=0;points=[];" vertex="1" connectable="0" parent="b8For3fgFrFaYTWbPGvS-1">
          <mxGeometry x="-0.0346" y="-1" relative="1" as="geometry">
            <mxPoint x="1" y="-11" as="offset" />
          </mxGeometry>
        </mxCell>
        <mxCell id="b8For3fgFrFaYTWbPGvS-3" value="1" style="ellipse;whiteSpace=wrap;html=1;aspect=fixed;" vertex="1" parent="1">
          <mxGeometry x="60" y="1320" width="40" height="40" as="geometry" />
        </mxCell>
        <mxCell id="b8For3fgFrFaYTWbPGvS-4" value="" style="endArrow=classic;html=1;rounded=0;entryX=0;entryY=0.5;entryDx=0;entryDy=0;" edge="1" parent="1" target="b8For3fgFrFaYTWbPGvS-3">
          <mxGeometry width="50" height="50" relative="1" as="geometry">
            <mxPoint x="20" y="1340" as="sourcePoint" />
            <mxPoint x="120" y="1420" as="targetPoint" />
          </mxGeometry>
        </mxCell>
        <mxCell id="b8For3fgFrFaYTWbPGvS-5" style="edgeStyle=orthogonalEdgeStyle;rounded=0;orthogonalLoop=1;jettySize=auto;html=1;entryX=0;entryY=0.5;entryDx=0;entryDy=0;" edge="1" parent="1" source="b8For3fgFrFaYTWbPGvS-11" target="b8For3fgFrFaYTWbPGvS-17">
          <mxGeometry relative="1" as="geometry">
            <mxPoint x="270" y="1340" as="targetPoint" />
          </mxGeometry>
        </mxCell>
        <mxCell id="b8For3fgFrFaYTWbPGvS-6" value="a" style="edgeLabel;html=1;align=center;verticalAlign=middle;resizable=0;points=[];" vertex="1" connectable="0" parent="b8For3fgFrFaYTWbPGvS-5">
          <mxGeometry x="0.2322" y="-1" relative="1" as="geometry">
            <mxPoint y="-11" as="offset" />
          </mxGeometry>
        </mxCell>
        <mxCell id="b8For3fgFrFaYTWbPGvS-7" style="edgeStyle=orthogonalEdgeStyle;rounded=0;orthogonalLoop=1;jettySize=auto;html=1;entryX=0;entryY=0.5;entryDx=0;entryDy=0;" edge="1" parent="1" source="b8For3fgFrFaYTWbPGvS-11" target="b8For3fgFrFaYTWbPGvS-19">
          <mxGeometry relative="1" as="geometry">
            <mxPoint x="170" y="1470" as="targetPoint" />
            <Array as="points" />
          </mxGeometry>
        </mxCell>
        <mxCell id="b8For3fgFrFaYTWbPGvS-8" value="c" style="edgeLabel;html=1;align=center;verticalAlign=middle;resizable=0;points=[];" vertex="1" connectable="0" parent="b8For3fgFrFaYTWbPGvS-7">
          <mxGeometry x="-0.5781" y="-2" relative="1" as="geometry">
            <mxPoint as="offset" />
          </mxGeometry>
        </mxCell>
        <mxCell id="b8For3fgFrFaYTWbPGvS-9" style="edgeStyle=orthogonalEdgeStyle;rounded=0;orthogonalLoop=1;jettySize=auto;html=1;entryX=0.5;entryY=1;entryDx=0;entryDy=0;" edge="1" parent="1" source="b8For3fgFrFaYTWbPGvS-11" target="b8For3fgFrFaYTWbPGvS-14">
          <mxGeometry relative="1" as="geometry">
            <mxPoint x="250" y="1430" as="targetPoint" />
            <Array as="points">
              <mxPoint x="210" y="1340" />
              <mxPoint x="210" y="1510" />
              <mxPoint x="320" y="1510" />
            </Array>
          </mxGeometry>
        </mxCell>
        <mxCell id="b8For3fgFrFaYTWbPGvS-10" value="b" style="edgeLabel;html=1;align=center;verticalAlign=middle;resizable=0;points=[];" vertex="1" connectable="0" parent="b8For3fgFrFaYTWbPGvS-9">
          <mxGeometry x="-0.551" y="-1" relative="1" as="geometry">
            <mxPoint as="offset" />
          </mxGeometry>
        </mxCell>
        <mxCell id="b8For3fgFrFaYTWbPGvS-11" value="2" style="ellipse;whiteSpace=wrap;html=1;aspect=fixed;" vertex="1" parent="1">
          <mxGeometry x="140" y="1320" width="40" height="40" as="geometry" />
        </mxCell>
        <mxCell id="b8For3fgFrFaYTWbPGvS-12" style="edgeStyle=orthogonalEdgeStyle;rounded=0;orthogonalLoop=1;jettySize=auto;html=1;entryX=1;entryY=0.5;entryDx=0;entryDy=0;" edge="1" parent="1" source="b8For3fgFrFaYTWbPGvS-14" target="b8For3fgFrFaYTWbPGvS-34">
          <mxGeometry relative="1" as="geometry">
            <Array as="points">
              <mxPoint x="320" y="1420" />
            </Array>
          </mxGeometry>
        </mxCell>
        <mxCell id="b8For3fgFrFaYTWbPGvS-13" value="c" style="edgeLabel;html=1;align=center;verticalAlign=middle;resizable=0;points=[];" vertex="1" connectable="0" parent="b8For3fgFrFaYTWbPGvS-12">
          <mxGeometry x="-0.3121" y="-3" relative="1" as="geometry">
            <mxPoint x="7" y="-6" as="offset" />
          </mxGeometry>
        </mxCell>
        <mxCell id="b8For3fgFrFaYTWbPGvS-14" value="4" style="ellipse;whiteSpace=wrap;html=1;aspect=fixed;" vertex="1" parent="1">
          <mxGeometry x="300" y="1450" width="40" height="40" as="geometry" />
        </mxCell>
        <mxCell id="b8For3fgFrFaYTWbPGvS-15" style="edgeStyle=orthogonalEdgeStyle;rounded=0;orthogonalLoop=1;jettySize=auto;html=1;entryX=0;entryY=0.5;entryDx=0;entryDy=0;" edge="1" parent="1" source="b8For3fgFrFaYTWbPGvS-17" target="b8For3fgFrFaYTWbPGvS-27">
          <mxGeometry relative="1" as="geometry" />
        </mxCell>
        <mxCell id="b8For3fgFrFaYTWbPGvS-16" value="b" style="edgeLabel;html=1;align=center;verticalAlign=middle;resizable=0;points=[];" vertex="1" connectable="0" parent="b8For3fgFrFaYTWbPGvS-15">
          <mxGeometry x="-0.1203" y="1" relative="1" as="geometry">
            <mxPoint x="12" y="-9" as="offset" />
          </mxGeometry>
        </mxCell>
        <mxCell id="b8For3fgFrFaYTWbPGvS-17" value="3" style="ellipse;whiteSpace=wrap;html=1;aspect=fixed;" vertex="1" parent="1">
          <mxGeometry x="290" y="1320" width="40" height="40" as="geometry" />
        </mxCell>
        <mxCell id="b8For3fgFrFaYTWbPGvS-18" value="" style="group" vertex="1" connectable="0" parent="1">
          <mxGeometry x="160" y="1560" width="40" height="40" as="geometry" />
        </mxCell>
        <mxCell id="b8For3fgFrFaYTWbPGvS-19" value="" style="ellipse;whiteSpace=wrap;html=1;aspect=fixed;" vertex="1" parent="b8For3fgFrFaYTWbPGvS-18">
          <mxGeometry width="40" height="40" as="geometry" />
        </mxCell>
        <mxCell id="b8For3fgFrFaYTWbPGvS-20" value="5" style="ellipse;whiteSpace=wrap;html=1;aspect=fixed;" vertex="1" parent="b8For3fgFrFaYTWbPGvS-18">
          <mxGeometry x="5" y="5" width="30" height="30" as="geometry" />
        </mxCell>
        <mxCell id="b8For3fgFrFaYTWbPGvS-21" style="edgeStyle=orthogonalEdgeStyle;rounded=0;orthogonalLoop=1;jettySize=auto;html=1;entryX=1;entryY=0.5;entryDx=0;entryDy=0;exitX=0;exitY=1;exitDx=0;exitDy=0;" edge="1" parent="1" source="b8For3fgFrFaYTWbPGvS-27" target="b8For3fgFrFaYTWbPGvS-14">
          <mxGeometry relative="1" as="geometry">
            <Array as="points">
              <mxPoint x="440" y="1354" />
              <mxPoint x="440" y="1470" />
            </Array>
          </mxGeometry>
        </mxCell>
        <mxCell id="b8For3fgFrFaYTWbPGvS-22" value="b" style="edgeLabel;html=1;align=center;verticalAlign=middle;resizable=0;points=[];" vertex="1" connectable="0" parent="b8For3fgFrFaYTWbPGvS-21">
          <mxGeometry x="-0.0842" y="-1" relative="1" as="geometry">
            <mxPoint x="-9" as="offset" />
          </mxGeometry>
        </mxCell>
        <mxCell id="b8For3fgFrFaYTWbPGvS-23" style="edgeStyle=orthogonalEdgeStyle;rounded=0;orthogonalLoop=1;jettySize=auto;html=1;entryX=1;entryY=0.5;entryDx=0;entryDy=0;" edge="1" parent="1" source="b8For3fgFrFaYTWbPGvS-27" target="b8For3fgFrFaYTWbPGvS-19">
          <mxGeometry relative="1" as="geometry">
            <Array as="points">
              <mxPoint x="460" y="1580" />
            </Array>
          </mxGeometry>
        </mxCell>
        <mxCell id="b8For3fgFrFaYTWbPGvS-24" value="c" style="edgeLabel;html=1;align=center;verticalAlign=middle;resizable=0;points=[];" vertex="1" connectable="0" parent="b8For3fgFrFaYTWbPGvS-23">
          <mxGeometry x="0.2343" y="-2" relative="1" as="geometry">
            <mxPoint y="-13" as="offset" />
          </mxGeometry>
        </mxCell>
        <mxCell id="b8For3fgFrFaYTWbPGvS-25" style="edgeStyle=orthogonalEdgeStyle;rounded=0;orthogonalLoop=1;jettySize=auto;html=1;entryX=0.5;entryY=0;entryDx=0;entryDy=0;" edge="1" parent="1" source="b8For3fgFrFaYTWbPGvS-27" target="b8For3fgFrFaYTWbPGvS-17">
          <mxGeometry relative="1" as="geometry">
            <Array as="points">
              <mxPoint x="460" y="1280" />
              <mxPoint x="310" y="1280" />
            </Array>
          </mxGeometry>
        </mxCell>
        <mxCell id="b8For3fgFrFaYTWbPGvS-26" value="a" style="edgeLabel;html=1;align=center;verticalAlign=middle;resizable=0;points=[];" vertex="1" connectable="0" parent="b8For3fgFrFaYTWbPGvS-25">
          <mxGeometry x="-0.0161" relative="1" as="geometry">
            <mxPoint as="offset" />
          </mxGeometry>
        </mxCell>
        <mxCell id="b8For3fgFrFaYTWbPGvS-27" value="6" style="ellipse;whiteSpace=wrap;html=1;aspect=fixed;" vertex="1" parent="1">
          <mxGeometry x="440" y="1320" width="40" height="40" as="geometry" />
        </mxCell>
        <mxCell id="b8For3fgFrFaYTWbPGvS-28" style="edgeStyle=orthogonalEdgeStyle;rounded=0;orthogonalLoop=1;jettySize=auto;html=1;entryX=0.5;entryY=0;entryDx=0;entryDy=0;" edge="1" parent="1" source="b8For3fgFrFaYTWbPGvS-34" target="b8For3fgFrFaYTWbPGvS-19">
          <mxGeometry relative="1" as="geometry">
            <Array as="points">
              <mxPoint x="180" y="1420" />
            </Array>
          </mxGeometry>
        </mxCell>
        <mxCell id="b8For3fgFrFaYTWbPGvS-29" value="c" style="edgeLabel;html=1;align=center;verticalAlign=middle;resizable=0;points=[];" vertex="1" connectable="0" parent="b8For3fgFrFaYTWbPGvS-28">
          <mxGeometry x="-0.0023" y="-1" relative="1" as="geometry">
            <mxPoint as="offset" />
          </mxGeometry>
        </mxCell>
        <mxCell id="b8For3fgFrFaYTWbPGvS-30" style="edgeStyle=orthogonalEdgeStyle;rounded=0;orthogonalLoop=1;jettySize=auto;html=1;entryX=0;entryY=0.5;entryDx=0;entryDy=0;exitX=0.5;exitY=1;exitDx=0;exitDy=0;" edge="1" parent="1" source="b8For3fgFrFaYTWbPGvS-34" target="b8For3fgFrFaYTWbPGvS-14">
          <mxGeometry relative="1" as="geometry">
            <Array as="points">
              <mxPoint x="260" y="1470" />
            </Array>
          </mxGeometry>
        </mxCell>
        <mxCell id="b8For3fgFrFaYTWbPGvS-31" value="b" style="edgeLabel;html=1;align=center;verticalAlign=middle;resizable=0;points=[];" vertex="1" connectable="0" parent="b8For3fgFrFaYTWbPGvS-30">
          <mxGeometry x="-0.4791" y="-2" relative="1" as="geometry">
            <mxPoint x="-8" y="12" as="offset" />
          </mxGeometry>
        </mxCell>
        <mxCell id="b8For3fgFrFaYTWbPGvS-32" style="edgeStyle=orthogonalEdgeStyle;rounded=0;orthogonalLoop=1;jettySize=auto;html=1;entryX=0.5;entryY=1;entryDx=0;entryDy=0;exitX=0.5;exitY=0;exitDx=0;exitDy=0;" edge="1" parent="1" source="b8For3fgFrFaYTWbPGvS-34" target="b8For3fgFrFaYTWbPGvS-17">
          <mxGeometry relative="1" as="geometry">
            <Array as="points">
              <mxPoint x="260" y="1390" />
              <mxPoint x="310" y="1390" />
            </Array>
          </mxGeometry>
        </mxCell>
        <mxCell id="b8For3fgFrFaYTWbPGvS-33" value="a" style="edgeLabel;html=1;align=center;verticalAlign=middle;resizable=0;points=[];" vertex="1" connectable="0" parent="b8For3fgFrFaYTWbPGvS-32">
          <mxGeometry x="-0.1299" y="3" relative="1" as="geometry">
            <mxPoint x="1" y="-7" as="offset" />
          </mxGeometry>
        </mxCell>
        <mxCell id="b8For3fgFrFaYTWbPGvS-34" value="7" style="ellipse;whiteSpace=wrap;html=1;aspect=fixed;" vertex="1" parent="1">
          <mxGeometry x="240" y="1400" width="40" height="40" as="geometry" />
        </mxCell>
      </root>
    </mxGraphModel>
  </diagram>
  <diagram id="a9SC8d8kFBI-9ZpaZqtO" name="Мин ДКА">
    <mxGraphModel dx="1562" dy="-191" grid="1" gridSize="10" guides="1" tooltips="1" connect="1" arrows="1" fold="1" page="1" pageScale="1" pageWidth="850" pageHeight="1100" math="0" shadow="0">
      <root>
        <mxCell id="0" />
        <mxCell id="1" parent="0" />
        <mxCell id="2MrRPYal1ZF9eFeZKKuZ-1" style="edgeStyle=orthogonalEdgeStyle;rounded=0;orthogonalLoop=1;jettySize=auto;html=1;entryX=0;entryY=0.5;entryDx=0;entryDy=0;" edge="1" parent="1" source="2MrRPYal1ZF9eFeZKKuZ-3" target="2MrRPYal1ZF9eFeZKKuZ-11">
          <mxGeometry relative="1" as="geometry" />
        </mxCell>
        <mxCell id="2MrRPYal1ZF9eFeZKKuZ-2" value="a" style="edgeLabel;html=1;align=center;verticalAlign=middle;resizable=0;points=[];" vertex="1" connectable="0" parent="2MrRPYal1ZF9eFeZKKuZ-1">
          <mxGeometry x="-0.0346" y="-1" relative="1" as="geometry">
            <mxPoint x="1" y="-11" as="offset" />
          </mxGeometry>
        </mxCell>
        <mxCell id="2MrRPYal1ZF9eFeZKKuZ-3" value="P" style="ellipse;whiteSpace=wrap;html=1;aspect=fixed;" vertex="1" parent="1">
          <mxGeometry x="60" y="1320" width="40" height="40" as="geometry" />
        </mxCell>
        <mxCell id="2MrRPYal1ZF9eFeZKKuZ-4" value="" style="endArrow=classic;html=1;rounded=0;entryX=0;entryY=0.5;entryDx=0;entryDy=0;" edge="1" parent="1" target="2MrRPYal1ZF9eFeZKKuZ-3">
          <mxGeometry width="50" height="50" relative="1" as="geometry">
            <mxPoint x="20" y="1340" as="sourcePoint" />
            <mxPoint x="120" y="1420" as="targetPoint" />
          </mxGeometry>
        </mxCell>
        <mxCell id="2MrRPYal1ZF9eFeZKKuZ-5" style="edgeStyle=orthogonalEdgeStyle;rounded=0;orthogonalLoop=1;jettySize=auto;html=1;entryX=0;entryY=0.5;entryDx=0;entryDy=0;exitX=0.251;exitY=0.002;exitDx=0;exitDy=0;exitPerimeter=0;" edge="1" parent="1" source="2MrRPYal1ZF9eFeZKKuZ-11" target="2MrRPYal1ZF9eFeZKKuZ-17">
          <mxGeometry relative="1" as="geometry">
            <mxPoint x="270" y="1340" as="targetPoint" />
            <Array as="points">
              <mxPoint x="150" y="1290" />
              <mxPoint x="120" y="1290" />
              <mxPoint x="120" y="1260" />
            </Array>
          </mxGeometry>
        </mxCell>
        <mxCell id="2MrRPYal1ZF9eFeZKKuZ-6" value="a" style="edgeLabel;html=1;align=center;verticalAlign=middle;resizable=0;points=[];" vertex="1" connectable="0" parent="2MrRPYal1ZF9eFeZKKuZ-5">
          <mxGeometry x="0.2322" y="-1" relative="1" as="geometry">
            <mxPoint x="9" y="-7" as="offset" />
          </mxGeometry>
        </mxCell>
        <mxCell id="2MrRPYal1ZF9eFeZKKuZ-7" style="edgeStyle=orthogonalEdgeStyle;rounded=0;orthogonalLoop=1;jettySize=auto;html=1;entryX=0;entryY=0.5;entryDx=0;entryDy=0;" edge="1" parent="1" source="2MrRPYal1ZF9eFeZKKuZ-11" target="2MrRPYal1ZF9eFeZKKuZ-19">
          <mxGeometry relative="1" as="geometry">
            <mxPoint x="250" y="1480" as="targetPoint" />
            <Array as="points">
              <mxPoint x="150" y="1350" />
            </Array>
          </mxGeometry>
        </mxCell>
        <mxCell id="2MrRPYal1ZF9eFeZKKuZ-40" value="c" style="edgeLabel;html=1;align=center;verticalAlign=middle;resizable=0;points=[];" vertex="1" connectable="0" parent="2MrRPYal1ZF9eFeZKKuZ-7">
          <mxGeometry x="-0.0813" relative="1" as="geometry">
            <mxPoint y="-10" as="offset" />
          </mxGeometry>
        </mxCell>
        <mxCell id="2MrRPYal1ZF9eFeZKKuZ-9" style="edgeStyle=orthogonalEdgeStyle;rounded=0;orthogonalLoop=1;jettySize=auto;html=1;entryX=1;entryY=0.5;entryDx=0;entryDy=0;exitX=0.75;exitY=1;exitDx=0;exitDy=0;exitPerimeter=0;" edge="1" parent="1" source="2MrRPYal1ZF9eFeZKKuZ-11" target="2MrRPYal1ZF9eFeZKKuZ-14">
          <mxGeometry relative="1" as="geometry">
            <mxPoint x="210" y="1400" as="targetPoint" />
            <Array as="points">
              <mxPoint x="170" y="1390" />
              <mxPoint x="200" y="1390" />
              <mxPoint x="200" y="1420" />
            </Array>
            <mxPoint x="180" y="1370" as="sourcePoint" />
          </mxGeometry>
        </mxCell>
        <mxCell id="2MrRPYal1ZF9eFeZKKuZ-37" value="b" style="edgeLabel;html=1;align=center;verticalAlign=middle;resizable=0;points=[];" vertex="1" connectable="0" parent="2MrRPYal1ZF9eFeZKKuZ-9">
          <mxGeometry x="-0.1425" relative="1" as="geometry">
            <mxPoint x="3" y="10" as="offset" />
          </mxGeometry>
        </mxCell>
        <mxCell id="2MrRPYal1ZF9eFeZKKuZ-11" value="Q" style="ellipse;whiteSpace=wrap;html=1;aspect=fixed;" vertex="1" parent="1">
          <mxGeometry x="140" y="1320" width="40" height="40" as="geometry" />
        </mxCell>
        <mxCell id="2MrRPYal1ZF9eFeZKKuZ-35" style="edgeStyle=orthogonalEdgeStyle;rounded=0;orthogonalLoop=1;jettySize=auto;html=1;entryX=0.251;entryY=1.002;entryDx=0;entryDy=0;exitX=0;exitY=0.5;exitDx=0;exitDy=0;entryPerimeter=0;" edge="1" parent="1" source="2MrRPYal1ZF9eFeZKKuZ-14" target="2MrRPYal1ZF9eFeZKKuZ-11">
          <mxGeometry relative="1" as="geometry">
            <Array as="points">
              <mxPoint x="120" y="1420" />
              <mxPoint x="120" y="1390" />
              <mxPoint x="150" y="1390" />
            </Array>
          </mxGeometry>
        </mxCell>
        <mxCell id="2MrRPYal1ZF9eFeZKKuZ-39" value="c" style="edgeLabel;html=1;align=center;verticalAlign=middle;resizable=0;points=[];" vertex="1" connectable="0" parent="2MrRPYal1ZF9eFeZKKuZ-35">
          <mxGeometry x="0.1419" relative="1" as="geometry">
            <mxPoint x="-3" y="10" as="offset" />
          </mxGeometry>
        </mxCell>
        <mxCell id="2MrRPYal1ZF9eFeZKKuZ-14" value="S" style="ellipse;whiteSpace=wrap;html=1;aspect=fixed;" vertex="1" parent="1">
          <mxGeometry x="140" y="1400" width="40" height="40" as="geometry" />
        </mxCell>
        <mxCell id="2MrRPYal1ZF9eFeZKKuZ-15" style="edgeStyle=orthogonalEdgeStyle;rounded=0;orthogonalLoop=1;jettySize=auto;html=1;entryX=0.747;entryY=0.002;entryDx=0;entryDy=0;exitX=1;exitY=0.5;exitDx=0;exitDy=0;entryPerimeter=0;" edge="1" parent="1" source="2MrRPYal1ZF9eFeZKKuZ-17" target="2MrRPYal1ZF9eFeZKKuZ-11">
          <mxGeometry relative="1" as="geometry">
            <mxPoint x="182.32050807568874" y="1240" as="sourcePoint" />
            <mxPoint x="165" y="1320" as="targetPoint" />
            <Array as="points">
              <mxPoint x="200" y="1260" />
              <mxPoint x="200" y="1290" />
              <mxPoint x="170" y="1290" />
            </Array>
          </mxGeometry>
        </mxCell>
        <mxCell id="2MrRPYal1ZF9eFeZKKuZ-16" value="b" style="edgeLabel;html=1;align=center;verticalAlign=middle;resizable=0;points=[];" vertex="1" connectable="0" parent="2MrRPYal1ZF9eFeZKKuZ-15">
          <mxGeometry x="-0.1203" y="1" relative="1" as="geometry">
            <mxPoint x="-12" y="-14" as="offset" />
          </mxGeometry>
        </mxCell>
        <mxCell id="2MrRPYal1ZF9eFeZKKuZ-17" value="R" style="ellipse;whiteSpace=wrap;html=1;aspect=fixed;" vertex="1" parent="1">
          <mxGeometry x="140" y="1240" width="40" height="40" as="geometry" />
        </mxCell>
        <mxCell id="2MrRPYal1ZF9eFeZKKuZ-18" value="" style="group" vertex="1" connectable="0" parent="1">
          <mxGeometry x="240" y="1320" width="40" height="40" as="geometry" />
        </mxCell>
        <mxCell id="2MrRPYal1ZF9eFeZKKuZ-19" value="" style="ellipse;whiteSpace=wrap;html=1;aspect=fixed;" vertex="1" parent="2MrRPYal1ZF9eFeZKKuZ-18">
          <mxGeometry width="40" height="40" as="geometry" />
        </mxCell>
        <mxCell id="2MrRPYal1ZF9eFeZKKuZ-20" value="T" style="ellipse;whiteSpace=wrap;html=1;aspect=fixed;" vertex="1" parent="2MrRPYal1ZF9eFeZKKuZ-18">
          <mxGeometry x="5" y="5" width="30" height="30" as="geometry" />
        </mxCell>
      </root>
    </mxGraphModel>
  </diagram>
</mxfile>
